<?xml version="1.0" encoding="UTF-8"?>
<svg xmlns="http://www.w3.org/2000/svg" xmlns:xlink="http://www.w3.org/1999/xlink" width="50px" height="50px" viewBox="0 0 50 50" version="1.1">
<g id="surface1">
<path style=" stroke:none;fill-rule:nonzero;fill:rgb(100%,100%,100%);fill-opacity:1;" d="M 48.980469 37.796875 C 48.980469 40.582031 46.703125 42.859375 43.921875 42.859375 L 6.078125 42.859375 C 3.296875 42.859375 1.019531 40.582031 1.019531 37.796875 L 1.019531 12.203125 C 1.019531 9.417969 3.296875 7.140625 6.078125 7.140625 L 43.921875 7.140625 C 46.703125 7.140625 48.980469 9.417969 48.980469 12.203125 Z M 48.980469 37.796875 "/>
<path style=" stroke:none;fill-rule:nonzero;fill:rgb(83.529412%,2.745098%,2.745098%);fill-opacity:1;" d="M 6.078125 42.859375 L 7.144531 42.859375 L 7.144531 15.875 L 24.984375 30.246094 L 42.828125 15.875 L 42.828125 42.859375 L 43.921875 42.859375 C 46.527344 42.859375 48.6875 40.863281 48.953125 38.324219 L 48.953125 12.203125 C 48.953125 9.417969 46.675781 7.140625 43.890625 7.140625 L 24.984375 22.425781 L 6.078125 7.140625 C 3.296875 7.140625 1.019531 9.417969 1.019531 12.203125 L 1.019531 37.796875 C 1.019531 40.582031 3.296875 42.859375 6.078125 42.859375 Z M 6.078125 42.859375 "/>
<path style=" stroke:none;fill-rule:nonzero;fill:rgb(0%,0%,0%);fill-opacity:1;" d="M 43.921875 6.121094 L 6.078125 6.121094 C 2.726562 6.121094 0 8.847656 0 12.203125 L 0 37.796875 C 0 41.152344 2.726562 43.878906 6.078125 43.878906 L 43.921875 43.878906 C 47.273438 43.878906 50 41.152344 50 37.796875 L 50 12.203125 C 50 8.847656 47.273438 6.121094 43.921875 6.121094 Z M 41.007812 8.164062 L 24.984375 21.113281 L 8.964844 8.164062 Z M 41.808594 41.835938 L 8.164062 41.835938 L 8.164062 18.007812 L 24.347656 31.042969 C 24.71875 31.34375 25.253906 31.34375 25.625 31.042969 L 41.808594 18.007812 Z M 47.960938 37.796875 C 47.960938 40.027344 46.148438 41.835938 43.921875 41.835938 L 43.851562 41.835938 L 43.851562 15.875 C 43.851562 15.480469 43.625 15.121094 43.269531 14.953125 C 42.914062 14.785156 42.496094 14.832031 42.191406 15.078125 L 24.984375 28.9375 L 7.78125 15.078125 C 7.476562 14.832031 7.054688 14.785156 6.703125 14.953125 C 6.347656 15.121094 6.121094 15.480469 6.121094 15.875 L 6.121094 41.835938 L 6.078125 41.835938 C 3.851562 41.835938 2.039062 40.027344 2.039062 37.796875 L 2.039062 12.203125 C 2.039062 10.089844 3.671875 8.351562 5.738281 8.179688 L 24.34375 23.21875 C 24.53125 23.371094 24.757812 23.445312 24.984375 23.445312 C 25.214844 23.445312 25.441406 23.371094 25.628906 23.21875 L 44.238281 8.175781 C 46.316406 8.339844 47.960938 10.082031 47.960938 12.203125 Z M 47.960938 37.796875 "/>
<path style=" stroke:none;fill-rule:nonzero;fill:rgb(0%,0%,0%);fill-opacity:1;" d="M 38.917969 25.695312 C 39.144531 25.695312 39.371094 25.621094 39.558594 25.46875 L 39.914062 25.179688 C 40.351562 24.824219 40.421875 24.183594 40.066406 23.746094 C 39.710938 23.308594 39.066406 23.238281 38.628906 23.59375 L 38.273438 23.882812 C 37.835938 24.234375 37.769531 24.878906 38.125 25.316406 C 38.324219 25.566406 38.621094 25.695312 38.917969 25.695312 Z M 38.917969 25.695312 "/>
<path style=" stroke:none;fill-rule:nonzero;fill:rgb(0%,0%,0%);fill-opacity:1;" d="M 29.058594 33.597656 C 29.28125 33.597656 29.507812 33.523438 29.699219 33.371094 L 36.992188 27.542969 C 37.433594 27.191406 37.5 26.546875 37.144531 26.109375 C 36.789062 25.671875 36.148438 25.601562 35.710938 25.957031 L 28.414062 31.785156 C 27.976562 32.140625 27.910156 32.78125 28.261719 33.21875 C 28.464844 33.46875 28.757812 33.597656 29.058594 33.597656 Z M 29.058594 33.597656 "/>
</g>
</svg>
