<?xml version="1.0" encoding="UTF-8"?>
<svg xmlns="http://www.w3.org/2000/svg" xmlns:xlink="http://www.w3.org/1999/xlink" width="50px" height="50px" viewBox="0 0 50 50" version="1.1">
<g id="surface1">
<path style=" stroke:none;fill-rule:nonzero;fill:rgb(7.058824%,42.745098%,69.411765%);fill-opacity:1;" d="M 49.210938 25 C 49.210938 38.371094 38.371094 49.210938 25 49.210938 C 11.628906 49.210938 0.789062 38.371094 0.789062 25 C 0.789062 11.628906 11.628906 0.789062 25 0.789062 C 38.371094 0.789062 49.210938 11.628906 49.210938 25 Z M 49.210938 25 "/>
<path style=" stroke:none;fill-rule:nonzero;fill:rgb(7.058824%,36.470588%,58.431373%);fill-opacity:1;" d="M 25 0.789062 C 23.929688 0.789062 22.875 0.859375 21.84375 0.996094 C 33.722656 2.542969 42.894531 12.699219 42.894531 25 C 42.894531 37.300781 33.722656 47.457031 21.84375 49.003906 C 22.875 49.140625 23.929688 49.210938 25 49.210938 C 38.371094 49.210938 49.210938 38.371094 49.210938 25 C 49.210938 11.628906 38.371094 0.789062 25 0.789062 Z M 25 0.789062 "/>
<path style=" stroke:none;fill-rule:nonzero;fill:rgb(100%,100%,100%);fill-opacity:1;" d="M 12.316406 36.421875 L 12.316406 20.949219 C 12.316406 20.832031 12.410156 20.738281 12.527344 20.738281 L 17.472656 20.738281 C 17.589844 20.738281 17.683594 20.832031 17.683594 20.949219 L 17.683594 36.421875 C 17.683594 36.535156 17.589844 36.632812 17.472656 36.632812 L 12.527344 36.632812 C 12.410156 36.632812 12.316406 36.535156 12.316406 36.421875 Z M 12.316406 36.421875 "/>
<path style=" stroke:none;fill-rule:nonzero;fill:rgb(100%,100%,100%);fill-opacity:1;" d="M 14.472656 17.683594 C 12.703125 17.683594 11.261719 16.242188 11.261719 14.472656 C 11.261719 12.703125 12.703125 11.261719 14.472656 11.261719 C 16.242188 11.261719 17.683594 12.703125 17.683594 14.472656 C 17.683594 16.242188 16.242188 17.683594 14.472656 17.683594 Z M 14.472656 17.683594 "/>
<path style=" stroke:none;fill-rule:nonzero;fill:rgb(100%,100%,100%);fill-opacity:1;" d="M 34.671875 36.632812 C 34.535156 36.632812 34.421875 36.519531 34.421875 36.378906 L 34.421875 30.910156 C 34.421875 29.117188 34.015625 26.105469 31.316406 26.105469 C 28.613281 26.105469 28.210938 29.117188 28.210938 30.910156 L 28.210938 36.378906 C 28.210938 36.519531 28.097656 36.632812 27.960938 36.632812 L 23.09375 36.632812 C 22.953125 36.632812 22.84375 36.519531 22.84375 36.378906 L 22.84375 20.988281 C 22.84375 20.847656 22.953125 20.738281 23.09375 20.738281 L 26.90625 20.738281 C 27.046875 20.738281 27.15625 20.847656 27.15625 20.988281 L 27.15625 22.035156 C 27.15625 22.234375 27.382812 22.355469 27.550781 22.242188 C 28.96875 21.253906 30.621094 20.738281 32.367188 20.738281 C 34.734375 20.738281 36.695312 21.679688 38.035156 23.464844 C 39.167969 24.96875 39.789062 27.011719 39.789062 29.210938 L 39.789062 36.378906 C 39.789062 36.519531 39.675781 36.632812 39.539062 36.632812 Z M 34.671875 36.632812 "/>
<path style=" stroke:none;fill-rule:nonzero;fill:rgb(0%,0%,0%);fill-opacity:1;" d="M 42.675781 7.324219 C 37.957031 2.601562 31.675781 0 25 0 C 18.324219 0 12.042969 2.601562 7.324219 7.324219 C 2.601562 12.042969 0 18.320312 0 25 C 0 31.679688 2.601562 37.957031 7.324219 42.675781 C 12.042969 47.398438 18.320312 50 25 50 C 31.679688 50 37.957031 47.398438 42.675781 42.675781 C 47.398438 37.957031 50 31.675781 50 25 C 50 18.324219 47.398438 12.042969 42.675781 7.324219 Z M 25 48.421875 C 12.085938 48.421875 1.578125 37.914062 1.578125 25 C 1.578125 12.085938 12.085938 1.578125 25 1.578125 C 37.914062 1.578125 48.421875 12.085938 48.421875 25 C 48.421875 37.914062 37.914062 48.421875 25 48.421875 Z M 25 48.421875 "/>
<path style=" stroke:none;fill-rule:nonzero;fill:rgb(0%,0%,0%);fill-opacity:1;" d="M 17.632812 20 L 12.367188 20 C 11.933594 20 11.578125 20.351562 11.578125 20.789062 L 11.578125 36.578125 C 11.578125 37.015625 11.933594 37.367188 12.367188 37.367188 L 17.632812 37.367188 C 18.066406 37.367188 18.421875 37.015625 18.421875 36.578125 L 18.421875 20.789062 C 18.421875 20.351562 18.066406 20 17.632812 20 Z M 16.84375 35.789062 L 13.15625 35.789062 L 13.15625 21.578125 L 16.84375 21.578125 Z M 16.84375 35.789062 "/>
<path style=" stroke:none;fill-rule:nonzero;fill:rgb(0%,0%,0%);fill-opacity:1;" d="M 14.472656 10.527344 C 12.296875 10.527344 10.527344 12.296875 10.527344 14.472656 C 10.527344 16.648438 12.296875 18.421875 14.472656 18.421875 C 16.648438 18.421875 18.421875 16.648438 18.421875 14.472656 C 18.421875 12.296875 16.648438 10.527344 14.472656 10.527344 Z M 14.472656 16.84375 C 13.167969 16.84375 12.105469 15.78125 12.105469 14.472656 C 12.105469 13.167969 13.167969 12.105469 14.472656 12.105469 C 15.78125 12.105469 16.84375 13.167969 16.84375 14.472656 C 16.84375 15.78125 15.78125 16.84375 14.472656 16.84375 Z M 14.472656 16.84375 "/>
<path style=" stroke:none;fill-rule:nonzero;fill:rgb(0%,0%,0%);fill-opacity:1;" d="M 32.367188 20 C 30.800781 20 29.257812 20.40625 27.894531 21.160156 L 27.894531 20.789062 C 27.894531 20.351562 27.542969 20 27.105469 20 L 22.894531 20 C 22.457031 20 22.105469 20.355469 22.105469 20.789062 L 22.105469 36.578125 C 22.105469 37.015625 22.457031 37.367188 22.894531 37.367188 L 28.15625 37.367188 C 28.59375 37.367188 28.949219 37.015625 28.949219 36.578125 L 28.949219 30.910156 C 28.949219 29.054688 29.359375 26.84375 31.316406 26.84375 C 32.777344 26.84375 33.375 28.074219 33.585938 29.472656 C 33.644531 29.855469 33.976562 30.136719 34.363281 30.136719 C 34.847656 30.136719 35.214844 29.699219 35.140625 29.21875 C 34.742188 26.683594 33.398438 25.261719 31.316406 25.261719 C 28.808594 25.261719 27.367188 27.320312 27.367188 30.910156 L 27.367188 35.789062 L 23.683594 35.789062 L 23.683594 21.578125 L 26.316406 21.578125 L 26.316406 22.617188 C 26.316406 22.863281 26.417969 23.101562 26.609375 23.253906 C 26.90625 23.492188 27.316406 23.480469 27.597656 23.253906 C 28.964844 22.160156 30.617188 21.578125 32.367188 21.578125 C 36.914062 21.578125 38.949219 25.410156 38.949219 29.210938 L 38.949219 35.789062 L 35.261719 35.789062 L 35.261719 33.191406 C 35.261719 32.753906 34.910156 32.402344 34.476562 32.402344 L 34.472656 32.402344 C 34.035156 32.402344 33.683594 32.753906 33.683594 33.191406 L 33.683594 36.578125 C 33.683594 37.015625 34.039062 37.367188 34.472656 37.367188 L 39.738281 37.367188 C 40.171875 37.367188 40.527344 37.015625 40.527344 36.578125 L 40.527344 29.210938 C 40.527344 23.789062 37.171875 20 32.367188 20 Z M 32.367188 20 "/>
</g>
</svg>
