<?xml version="1.0" encoding="UTF-8"?>
<svg xmlns="http://www.w3.org/2000/svg" xmlns:xlink="http://www.w3.org/1999/xlink" width="50px" height="50px" viewBox="0 0 50 50" version="1.1">
<g id="surface1">
<path style=" stroke:none;fill-rule:nonzero;fill:rgb(0%,67.058824%,89.019608%);fill-opacity:1;" d="M 49.605469 37.285156 C 49.605469 44.054688 44.054688 49.605469 37.285156 49.605469 L 12.714844 49.605469 C 5.945312 49.605469 0.394531 44.054688 0.394531 37.285156 L 0.394531 12.714844 C 0.394531 5.945312 5.90625 0.394531 12.714844 0.394531 L 37.285156 0.394531 C 44.054688 0.394531 49.605469 5.945312 49.605469 12.714844 Z M 49.605469 37.285156 "/>
<path style=" stroke:none;fill-rule:nonzero;fill:rgb(100%,100%,100%);fill-opacity:1;" d="M 39.488281 13.1875 C 38.269531 13.898438 36.929688 14.410156 35.472656 14.683594 C 34.332031 13.464844 32.675781 12.714844 30.867188 12.714844 C 27.402344 12.714844 24.566406 15.511719 24.566406 18.9375 C 24.566406 19.410156 24.605469 19.882812 24.722656 20.355469 C 19.488281 20.078125 14.84375 17.636719 11.730469 13.859375 C 11.179688 14.765625 10.867188 15.828125 10.867188 16.96875 C 10.867188 19.132812 12.007812 21.023438 13.699219 22.125 C 12.675781 22.085938 11.652344 21.8125 10.90625 21.339844 L 10.90625 21.417969 C 10.90625 24.410156 13.03125 26.929688 15.90625 27.480469 C 15.394531 27.636719 14.804688 27.714844 14.210938 27.714844 C 13.820312 27.714844 13.386719 27.675781 13.03125 27.597656 C 13.820312 30.078125 16.140625 31.851562 18.898438 31.890625 C 16.730469 33.542969 14.015625 34.527344 11.0625 34.527344 C 10.550781 34.527344 10.039062 34.488281 9.566406 34.449219 C 12.363281 36.21875 15.667969 37.242188 19.210938 37.242188 C 30.789062 37.242188 37.125 27.796875 37.125 19.605469 C 37.125 19.332031 37.125 19.054688 37.125 18.820312 C 38.347656 17.953125 39.410156 16.851562 40.277344 15.589844 C 39.132812 16.101562 37.914062 16.417969 36.652344 16.574219 C 38.03125 15.828125 39.015625 14.605469 39.488281 13.1875 "/>
<path style=" stroke:none;fill-rule:nonzero;fill:rgb(0%,0%,0%);fill-opacity:1;" d="M 37.285156 50 L 12.714844 50 C 5.707031 50 0 44.292969 0 37.285156 L 0 12.714844 C 0 5.707031 5.707031 0 12.714844 0 L 37.285156 0 C 44.292969 0 50 5.707031 50 12.714844 L 50 37.285156 C 50 44.292969 44.292969 50 37.285156 50 Z M 12.714844 0.789062 C 6.140625 0.789062 0.789062 6.140625 0.789062 12.714844 L 0.789062 37.285156 C 0.789062 43.859375 6.140625 49.210938 12.714844 49.210938 L 37.285156 49.210938 C 43.859375 49.210938 49.210938 43.859375 49.210938 37.285156 L 49.210938 12.714844 C 49.210938 6.140625 43.859375 0.789062 37.285156 0.789062 Z M 12.714844 0.789062 "/>
<path style=" stroke:none;fill-rule:nonzero;fill:rgb(0%,0%,0%);fill-opacity:1;" d="M 36.417969 47.636719 L 13.582031 47.636719 C 7.480469 47.636719 2.324219 42.480469 2.324219 36.378906 L 2.324219 13.582031 C 2.363281 7.480469 7.480469 2.363281 13.582031 2.363281 L 36.300781 2.363281 C 36.535156 2.363281 36.691406 2.519531 36.691406 2.757812 C 36.691406 2.992188 36.535156 3.148438 36.300781 3.148438 L 13.582031 3.148438 C 7.914062 3.148438 3.148438 7.914062 3.148438 13.582031 L 3.148438 36.417969 C 3.148438 42.085938 7.953125 46.890625 13.621094 46.890625 L 36.457031 46.890625 C 42.125 46.890625 46.890625 42.085938 46.890625 36.417969 L 46.890625 25.394531 C 46.890625 25.15625 47.046875 25 47.285156 25 C 47.519531 25 47.675781 25.15625 47.675781 25.394531 L 47.675781 36.417969 C 47.636719 42.519531 42.519531 47.636719 36.417969 47.636719 Z M 36.417969 47.636719 "/>
<path style=" stroke:none;fill-rule:nonzero;fill:rgb(0%,0%,0%);fill-opacity:1;" d="M 44.015625 6.417969 C 43.898438 6.417969 43.820312 6.378906 43.738281 6.300781 C 41.730469 4.292969 39.054688 3.148438 36.339844 3.148438 C 36.101562 3.148438 35.945312 2.992188 35.945312 2.757812 C 35.945312 2.519531 36.101562 2.363281 36.339844 2.363281 C 39.253906 2.363281 42.164062 3.582031 44.292969 5.746094 C 44.449219 5.90625 44.449219 6.140625 44.292969 6.300781 C 44.210938 6.378906 44.09375 6.417969 44.015625 6.417969 Z M 44.015625 6.417969 "/>
<path style=" stroke:none;fill-rule:nonzero;fill:rgb(0%,0%,0%);fill-opacity:1;" d="M 47.242188 23.03125 C 47.007812 23.03125 46.851562 22.875 46.851562 22.636719 L 46.851562 16.8125 C 46.851562 16.574219 47.007812 16.417969 47.242188 16.417969 C 47.480469 16.417969 47.636719 16.574219 47.636719 16.8125 L 47.636719 22.636719 C 47.636719 22.875 47.480469 23.03125 47.242188 23.03125 Z M 47.242188 23.03125 "/>
<path style=" stroke:none;fill-rule:nonzero;fill:rgb(0%,0%,0%);fill-opacity:1;" d="M 37.164062 20.039062 C 36.929688 20.039062 36.773438 19.882812 36.773438 19.644531 C 36.773438 19.371094 36.773438 19.132812 36.773438 18.859375 C 36.773438 18.738281 36.8125 18.582031 36.929688 18.503906 C 37.757812 17.914062 38.503906 17.242188 39.171875 16.457031 C 38.386719 16.691406 37.558594 16.890625 36.730469 16.96875 C 36.535156 17.007812 36.378906 16.890625 36.300781 16.691406 C 36.21875 16.496094 36.300781 16.339844 36.457031 16.21875 C 37.675781 15.511719 38.621094 14.371094 39.054688 12.992188 C 39.132812 12.796875 39.332031 12.675781 39.566406 12.757812 C 39.765625 12.835938 39.882812 13.03125 39.804688 13.269531 C 39.488281 14.253906 38.9375 15.15625 38.1875 15.90625 C 38.859375 15.746094 39.488281 15.511719 40.117188 15.234375 C 40.277344 15.15625 40.472656 15.195312 40.589844 15.355469 C 40.707031 15.472656 40.707031 15.667969 40.628906 15.828125 C 39.804688 17.046875 38.78125 18.109375 37.558594 19.015625 C 37.558594 19.210938 37.558594 19.410156 37.558594 19.605469 C 37.558594 19.84375 37.363281 20.039062 37.164062 20.039062 Z M 37.164062 20.039062 "/>
<path style=" stroke:none;fill-rule:nonzero;fill:rgb(0%,0%,0%);fill-opacity:1;" d="M 19.210938 37.675781 C 15.707031 37.675781 12.285156 36.691406 9.332031 34.84375 C 9.171875 34.765625 9.09375 34.566406 9.171875 34.371094 C 9.253906 34.171875 9.410156 34.09375 9.605469 34.09375 C 12.558594 34.449219 15.433594 33.738281 17.796875 32.203125 C 15.394531 31.773438 13.386719 30.078125 12.636719 27.714844 C 12.597656 27.597656 12.636719 27.441406 12.714844 27.324219 C 12.796875 27.203125 12.953125 27.164062 13.070312 27.203125 C 13.425781 27.285156 13.820312 27.324219 14.171875 27.324219 C 11.96875 26.21875 10.511719 23.976562 10.511719 21.417969 L 10.511719 21.339844 C 10.511719 21.179688 10.589844 21.0625 10.707031 20.984375 C 10.828125 20.90625 10.984375 20.90625 11.101562 20.984375 C 11.457031 21.21875 11.890625 21.378906 12.324219 21.496094 C 11.101562 20.277344 10.394531 18.621094 10.394531 16.929688 C 10.394531 15.746094 10.707031 14.605469 11.300781 13.621094 C 11.378906 13.503906 11.496094 13.425781 11.613281 13.425781 C 11.730469 13.425781 11.851562 13.464844 11.929688 13.582031 C 14.960938 17.242188 19.371094 19.527344 24.132812 19.882812 C 24.09375 19.566406 24.054688 19.210938 24.054688 18.898438 C 24.054688 15.277344 27.046875 12.285156 30.746094 12.285156 C 32.519531 12.285156 34.210938 12.992188 35.472656 14.210938 C 36.773438 13.9375 37.992188 13.464844 39.132812 12.796875 C 39.332031 12.675781 39.566406 12.757812 39.683594 12.953125 C 39.804688 13.148438 39.722656 13.386719 39.527344 13.503906 C 38.226562 14.253906 36.851562 14.765625 35.394531 15.039062 C 35.277344 15.078125 35.117188 15.039062 35.039062 14.921875 C 33.9375 13.738281 32.363281 13.070312 30.707031 13.070312 C 27.441406 13.070312 24.804688 15.667969 24.804688 18.898438 C 24.804688 19.332031 24.84375 19.804688 24.960938 20.234375 C 25 20.355469 24.960938 20.472656 24.882812 20.589844 C 24.804688 20.707031 24.683594 20.746094 24.566406 20.746094 C 19.605469 20.511719 14.921875 18.269531 11.691406 14.566406 C 11.339844 15.316406 11.140625 16.140625 11.140625 17.007812 C 11.140625 18.9375 12.164062 20.746094 13.820312 21.851562 C 13.976562 21.929688 14.015625 22.125 13.976562 22.285156 C 13.9375 22.441406 13.78125 22.558594 13.582031 22.558594 C 12.757812 22.519531 11.929688 22.363281 11.21875 22.046875 C 11.457031 24.566406 13.347656 26.652344 15.867188 27.164062 C 16.0625 27.203125 16.179688 27.363281 16.179688 27.519531 C 16.179688 27.714844 16.0625 27.875 15.90625 27.914062 C 15.15625 28.109375 14.332031 28.1875 13.503906 28.109375 C 14.449219 30.15625 16.496094 31.496094 18.78125 31.535156 C 18.9375 31.535156 19.09375 31.652344 19.132812 31.8125 C 19.171875 31.96875 19.132812 32.125 19.015625 32.242188 C 16.730469 34.015625 13.976562 34.960938 11.101562 34.960938 C 13.582031 36.21875 16.300781 36.890625 19.132812 36.890625 C 25.15625 36.890625 30.277344 34.253906 33.542969 29.449219 C 33.660156 29.253906 33.898438 29.210938 34.09375 29.332031 C 34.292969 29.449219 34.332031 29.683594 34.210938 29.882812 C 30.90625 34.921875 25.550781 37.675781 19.210938 37.675781 Z M 19.210938 37.675781 "/>
</g>
</svg>
