<?xml version="1.0" encoding="UTF-8"?>
<svg xmlns="http://www.w3.org/2000/svg" xmlns:xlink="http://www.w3.org/1999/xlink" width="50px" height="50px" viewBox="0 0 50 50" version="1.1">
<g id="surface1">
<path style=" stroke:none;fill-rule:nonzero;fill:rgb(27.843137%,69.019608%,82.745098%);fill-opacity:1;" d="M 49.21875 25 C 49.21875 38.375 38.375 49.21875 25 49.21875 C 11.625 49.21875 0.78125 38.375 0.78125 25 C 0.78125 11.625 11.625 0.78125 25 0.78125 C 38.375 0.78125 49.21875 11.625 49.21875 25 Z M 49.21875 25 "/>
<path style=" stroke:none;fill-rule:nonzero;fill:rgb(19.607843%,59.607843%,72.941176%);fill-opacity:1;" d="M 28.339844 48.382812 C 14.964844 48.382812 4.125 37.539062 4.125 24.164062 C 4.125 13.421875 11.117188 4.316406 20.800781 1.148438 C 9.425781 3.136719 0.78125 13.058594 0.78125 25 C 0.78125 38.375 11.625 49.21875 25 49.21875 C 27.632812 49.21875 30.167969 48.796875 32.542969 48.019531 C 31.175781 48.257812 29.773438 48.382812 28.339844 48.382812 Z M 28.339844 48.382812 "/>
<path style=" stroke:none;fill-rule:nonzero;fill:rgb(69.803922%,69.803922%,69.803922%);fill-opacity:1;" d="M 18.421875 39.195312 L 16.496094 27.65625 L 36.691406 11.308594 Z M 18.421875 39.195312 "/>
<path style=" stroke:none;fill-rule:nonzero;fill:rgb(80%,80%,80%);fill-opacity:1;" d="M 20.824219 29.101562 L 18.421875 39.195312 L 36.691406 11.308594 Z M 20.824219 29.101562 "/>
<path style=" stroke:none;fill-rule:nonzero;fill:rgb(89.803922%,89.803922%,89.803922%);fill-opacity:1;" d="M 20.824219 29.101562 L 36.691406 11.308594 L 35.289062 35.125 C 35.269531 35.460938 34.914062 35.675781 34.605469 35.53125 Z M 20.824219 29.101562 "/>
<path style=" stroke:none;fill-rule:nonzero;fill:rgb(89.803922%,89.803922%,89.803922%);fill-opacity:1;" d="M 36.691406 11.308594 L 9.769531 23.84375 C 9.394531 24.015625 9.402344 24.554688 9.78125 24.71875 L 16.496094 27.65625 Z M 36.691406 11.308594 "/>
<path style=" stroke:none;fill-rule:nonzero;fill:rgb(0%,0%,0%);fill-opacity:1;" d="M 47.914062 14.984375 C 46.574219 11.929688 44.667969 9.207031 42.242188 6.898438 C 41.929688 6.597656 41.433594 6.609375 41.132812 6.921875 C 40.835938 7.238281 40.847656 7.730469 41.160156 8.03125 C 45.851562 12.5 48.433594 18.523438 48.433594 25 C 48.433594 37.921875 37.921875 48.433594 25 48.433594 C 12.078125 48.433594 1.566406 37.921875 1.566406 25 C 1.566406 12.078125 12.078125 1.566406 25 1.566406 C 29.71875 1.566406 34.269531 2.960938 38.160156 5.605469 C 38.515625 5.847656 39.003906 5.757812 39.246094 5.398438 C 39.488281 5.039062 39.394531 4.554688 39.039062 4.3125 C 34.890625 1.492188 30.035156 0 25 0 C 18.320312 0 12.042969 2.601562 7.324219 7.324219 C 2.601562 12.042969 0 18.320312 0 25 C 0 31.679688 2.601562 37.957031 7.324219 42.675781 C 12.042969 47.398438 18.320312 50 25 50 C 31.679688 50 37.957031 47.398438 42.675781 42.675781 C 47.398438 37.957031 50 31.679688 50 25 C 50 21.519531 49.296875 18.148438 47.914062 14.984375 Z M 47.914062 14.984375 "/>
<path style=" stroke:none;fill-rule:nonzero;fill:rgb(0%,0%,0%);fill-opacity:1;" d="M 37.472656 11.289062 C 37.457031 10.734375 36.863281 10.367188 36.359375 10.601562 L 21.304688 17.609375 C 20.914062 17.792969 20.742188 18.257812 20.925781 18.648438 C 21.109375 19.042969 21.574219 19.210938 21.964844 19.027344 L 31.253906 14.707031 L 26.738281 18.359375 L 16.375 26.75 L 10.707031 24.269531 L 18.648438 20.574219 C 19.042969 20.390625 19.210938 19.925781 19.027344 19.53125 C 18.847656 19.140625 18.378906 18.96875 17.988281 19.152344 L 9.441406 23.132812 C 8.984375 23.34375 8.699219 23.808594 8.710938 24.308594 C 8.722656 24.796875 9.019531 25.238281 9.46875 25.4375 L 15.796875 28.203125 L 17.648438 39.324219 C 17.761719 40.011719 18.695312 40.207031 19.074219 39.625 L 24.332031 31.601562 L 34.277344 36.242188 C 35.074219 36.613281 36.019531 36.042969 36.070312 35.167969 L 37.472656 11.355469 C 37.472656 11.335938 37.472656 11.3125 37.472656 11.289062 Z M 23.765625 29.609375 L 22.109375 28.835938 L 30.261719 19.695312 L 29.082031 21.496094 Z M 21.363281 30.214844 L 22.898438 30.933594 L 20.21875 35.023438 Z M 29.6875 17.988281 L 20.242188 28.578125 C 20.15625 28.671875 20.09375 28.792969 20.0625 28.917969 L 18.554688 35.246094 L 17.34375 27.980469 Z M 34.535156 34.632812 L 25.199219 30.277344 L 35.738281 14.195312 Z M 34.535156 34.632812 "/>
</g>
</svg>
