<?xml version="1.0" encoding="UTF-8"?>
<svg xmlns="http://www.w3.org/2000/svg" xmlns:xlink="http://www.w3.org/1999/xlink" width="30px" height="30px" viewBox="0 0 30 30" version="1.1">
<g id="surface1">
<path style=" stroke:none;fill-rule:nonzero;fill:rgb(100%,100%,100%);fill-opacity:1;" d="M 29.386719 22.679688 C 29.386719 24.347656 28.023438 25.714844 26.351562 25.714844 L 3.648438 25.714844 C 1.976562 25.714844 0.613281 24.347656 0.613281 22.679688 L 0.613281 7.320312 C 0.613281 5.652344 1.976562 4.285156 3.648438 4.285156 L 26.351562 4.285156 C 28.023438 4.285156 29.386719 5.652344 29.386719 7.320312 Z M 29.386719 22.679688 "/>
<path style=" stroke:none;fill-rule:nonzero;fill:rgb(83.529412%,2.745098%,2.745098%);fill-opacity:1;" d="M 3.648438 25.714844 L 4.285156 25.714844 L 4.285156 9.523438 L 14.992188 18.148438 L 25.699219 9.523438 L 25.699219 25.714844 L 26.351562 25.714844 C 27.914062 25.714844 29.210938 24.515625 29.371094 22.996094 L 29.371094 7.320312 C 29.371094 5.652344 28.003906 4.285156 26.335938 4.285156 L 14.992188 13.453125 L 3.648438 4.285156 C 1.976562 4.285156 0.613281 5.652344 0.613281 7.320312 L 0.613281 22.679688 C 0.613281 24.347656 1.976562 25.714844 3.648438 25.714844 Z M 3.648438 25.714844 "/>
<path style=" stroke:none;fill-rule:nonzero;fill:rgb(0%,0%,0%);fill-opacity:1;" d="M 26.351562 3.671875 L 3.648438 3.671875 C 1.636719 3.671875 0 5.308594 0 7.320312 L 0 22.679688 C 0 24.691406 1.636719 26.328125 3.648438 26.328125 L 26.351562 26.328125 C 28.363281 26.328125 30 24.691406 30 22.679688 L 30 7.320312 C 30 5.308594 28.363281 3.671875 26.351562 3.671875 Z M 24.605469 4.898438 L 14.992188 12.667969 L 5.378906 4.898438 Z M 25.085938 25.101562 L 4.898438 25.101562 L 4.898438 10.804688 L 14.609375 18.625 C 14.832031 18.804688 15.152344 18.804688 15.375 18.625 L 25.085938 10.804688 Z M 28.777344 22.679688 C 28.777344 24.015625 27.6875 25.101562 26.351562 25.101562 L 26.308594 25.101562 L 26.308594 9.523438 C 26.308594 9.289062 26.175781 9.074219 25.960938 8.972656 C 25.75 8.871094 25.496094 8.898438 25.3125 9.046875 L 14.992188 17.363281 L 4.667969 9.046875 C 4.484375 8.898438 4.234375 8.871094 4.019531 8.972656 C 3.808594 9.074219 3.671875 9.289062 3.671875 9.523438 L 3.671875 25.101562 L 3.648438 25.101562 C 2.3125 25.101562 1.222656 24.015625 1.222656 22.679688 L 1.222656 7.320312 C 1.222656 6.054688 2.203125 5.011719 3.441406 4.90625 L 14.605469 13.929688 C 14.71875 14.023438 14.855469 14.066406 14.992188 14.066406 C 15.128906 14.066406 15.265625 14.023438 15.375 13.929688 L 26.542969 4.90625 C 27.789062 5.003906 28.777344 6.046875 28.777344 7.320312 Z M 28.777344 22.679688 "/>
<path style=" stroke:none;fill-rule:nonzero;fill:rgb(0%,0%,0%);fill-opacity:1;" d="M 23.351562 15.417969 C 23.484375 15.417969 23.621094 15.371094 23.734375 15.28125 L 23.949219 15.109375 C 24.210938 14.894531 24.253906 14.507812 24.039062 14.246094 C 23.828125 13.984375 23.441406 13.945312 23.179688 14.15625 L 22.964844 14.328125 C 22.703125 14.542969 22.660156 14.925781 22.875 15.191406 C 22.996094 15.339844 23.171875 15.417969 23.351562 15.417969 Z M 23.351562 15.417969 "/>
<path style=" stroke:none;fill-rule:nonzero;fill:rgb(0%,0%,0%);fill-opacity:1;" d="M 17.433594 20.160156 C 17.570312 20.160156 17.707031 20.113281 17.820312 20.023438 L 22.195312 16.527344 C 22.460938 16.3125 22.5 15.929688 22.285156 15.664062 C 22.074219 15.402344 21.6875 15.363281 21.425781 15.574219 L 17.046875 19.070312 C 16.785156 19.285156 16.746094 19.667969 16.957031 19.933594 C 17.078125 20.082031 17.253906 20.160156 17.433594 20.160156 Z M 17.433594 20.160156 "/>
</g>
</svg>
