<?xml version="1.0" encoding="UTF-8"?>
<svg xmlns="http://www.w3.org/2000/svg" xmlns:xlink="http://www.w3.org/1999/xlink" width="30px" height="30px" viewBox="0 0 30 30" version="1.1">
<g id="surface1">
<path style=" stroke:none;fill-rule:nonzero;fill:rgb(7.058824%,42.745098%,69.411765%);fill-opacity:1;" d="M 29.527344 15 C 29.527344 23.023438 23.023438 29.527344 15 29.527344 C 6.976562 29.527344 0.472656 23.023438 0.472656 15 C 0.472656 6.976562 6.976562 0.472656 15 0.472656 C 23.023438 0.472656 29.527344 6.976562 29.527344 15 Z M 29.527344 15 "/>
<path style=" stroke:none;fill-rule:nonzero;fill:rgb(7.058824%,36.470588%,58.431373%);fill-opacity:1;" d="M 15 0.472656 C 14.359375 0.472656 13.726562 0.515625 13.105469 0.597656 C 20.234375 1.523438 25.738281 7.621094 25.738281 15 C 25.738281 22.378906 20.234375 28.476562 13.105469 29.402344 C 13.726562 29.484375 14.359375 29.527344 15 29.527344 C 23.023438 29.527344 29.527344 23.023438 29.527344 15 C 29.527344 6.976562 23.023438 0.472656 15 0.472656 Z M 15 0.472656 "/>
<path style=" stroke:none;fill-rule:nonzero;fill:rgb(100%,100%,100%);fill-opacity:1;" d="M 7.390625 21.851562 L 7.390625 12.570312 C 7.390625 12.5 7.445312 12.441406 7.515625 12.441406 L 10.484375 12.441406 C 10.554688 12.441406 10.609375 12.5 10.609375 12.570312 L 10.609375 21.851562 C 10.609375 21.921875 10.554688 21.980469 10.484375 21.980469 L 7.515625 21.980469 C 7.445312 21.980469 7.390625 21.921875 7.390625 21.851562 Z M 7.390625 21.851562 "/>
<path style=" stroke:none;fill-rule:nonzero;fill:rgb(100%,100%,100%);fill-opacity:1;" d="M 8.683594 10.609375 C 7.621094 10.609375 6.757812 9.746094 6.757812 8.683594 C 6.757812 7.621094 7.621094 6.757812 8.683594 6.757812 C 9.746094 6.757812 10.609375 7.621094 10.609375 8.683594 C 10.609375 9.746094 9.746094 10.609375 8.683594 10.609375 Z M 8.683594 10.609375 "/>
<path style=" stroke:none;fill-rule:nonzero;fill:rgb(100%,100%,100%);fill-opacity:1;" d="M 20.804688 21.980469 C 20.71875 21.980469 20.652344 21.910156 20.652344 21.828125 L 20.652344 18.546875 C 20.652344 17.46875 20.410156 15.664062 18.789062 15.664062 C 17.167969 15.664062 16.925781 17.46875 16.925781 18.546875 L 16.925781 21.828125 C 16.925781 21.910156 16.859375 21.980469 16.777344 21.980469 L 13.855469 21.980469 C 13.773438 21.980469 13.707031 21.910156 13.707031 21.828125 L 13.707031 12.59375 C 13.707031 12.507812 13.773438 12.441406 13.855469 12.441406 L 16.144531 12.441406 C 16.226562 12.441406 16.292969 12.507812 16.292969 12.59375 L 16.292969 13.21875 C 16.292969 13.339844 16.429688 13.414062 16.53125 13.34375 C 17.378906 12.753906 18.375 12.441406 19.421875 12.441406 C 20.839844 12.441406 22.015625 13.007812 22.820312 14.078125 C 23.5 14.980469 23.875 16.207031 23.875 17.527344 L 23.875 21.828125 C 23.875 21.910156 23.804688 21.980469 23.722656 21.980469 Z M 20.804688 21.980469 "/>
<path style=" stroke:none;fill-rule:nonzero;fill:rgb(0%,0%,0%);fill-opacity:1;" d="M 25.605469 4.394531 C 22.773438 1.558594 19.007812 0 15 0 C 10.992188 0 7.226562 1.558594 4.394531 4.394531 C 1.558594 7.226562 0 10.992188 0 15 C 0 19.007812 1.558594 22.773438 4.394531 25.605469 C 7.226562 28.441406 10.992188 30 15 30 C 19.007812 30 22.773438 28.441406 25.605469 25.605469 C 28.441406 22.773438 30 19.007812 30 15 C 30 10.992188 28.441406 7.226562 25.605469 4.394531 Z M 15 29.050781 C 7.25 29.050781 0.949219 22.75 0.949219 15 C 0.949219 7.25 7.25 0.949219 15 0.949219 C 22.75 0.949219 29.050781 7.25 29.050781 15 C 29.050781 22.75 22.75 29.050781 15 29.050781 Z M 15 29.050781 "/>
<path style=" stroke:none;fill-rule:nonzero;fill:rgb(0%,0%,0%);fill-opacity:1;" d="M 10.578125 12 L 7.421875 12 C 7.160156 12 6.949219 12.210938 6.949219 12.472656 L 6.949219 21.949219 C 6.949219 22.210938 7.160156 22.421875 7.421875 22.421875 L 10.578125 22.421875 C 10.839844 22.421875 11.050781 22.210938 11.050781 21.949219 L 11.050781 12.472656 C 11.050781 12.210938 10.839844 12 10.578125 12 Z M 10.105469 21.472656 L 7.894531 21.472656 L 7.894531 12.949219 L 10.105469 12.949219 Z M 10.105469 21.472656 "/>
<path style=" stroke:none;fill-rule:nonzero;fill:rgb(0%,0%,0%);fill-opacity:1;" d="M 8.683594 6.316406 C 7.378906 6.316406 6.316406 7.378906 6.316406 8.683594 C 6.316406 9.988281 7.378906 11.050781 8.683594 11.050781 C 9.988281 11.050781 11.050781 9.988281 11.050781 8.683594 C 11.050781 7.378906 9.988281 6.316406 8.683594 6.316406 Z M 8.683594 10.105469 C 7.902344 10.105469 7.261719 9.46875 7.261719 8.683594 C 7.261719 7.902344 7.902344 7.261719 8.683594 7.261719 C 9.46875 7.261719 10.105469 7.902344 10.105469 8.683594 C 10.105469 9.46875 9.46875 10.105469 8.683594 10.105469 Z M 8.683594 10.105469 "/>
<path style=" stroke:none;fill-rule:nonzero;fill:rgb(0%,0%,0%);fill-opacity:1;" d="M 19.421875 12 C 18.480469 12 17.554688 12.242188 16.738281 12.695312 L 16.738281 12.472656 C 16.738281 12.210938 16.523438 12 16.261719 12 L 13.738281 12 C 13.476562 12 13.261719 12.210938 13.261719 12.472656 L 13.261719 21.949219 C 13.261719 22.210938 13.476562 22.421875 13.738281 22.421875 L 16.894531 22.421875 C 17.15625 22.421875 17.367188 22.207031 17.367188 21.949219 L 17.367188 18.546875 C 17.367188 17.433594 17.613281 16.105469 18.789062 16.105469 C 19.664062 16.105469 20.027344 16.84375 20.152344 17.683594 C 20.1875 17.914062 20.386719 18.082031 20.617188 18.082031 C 20.910156 18.082031 21.128906 17.820312 21.082031 17.53125 C 20.847656 16.011719 20.039062 15.15625 18.789062 15.15625 C 17.285156 15.15625 16.421875 16.394531 16.421875 18.546875 L 16.421875 21.472656 L 14.210938 21.472656 L 14.210938 12.949219 L 15.789062 12.949219 L 15.789062 13.570312 C 15.789062 13.71875 15.851562 13.859375 15.964844 13.953125 C 16.144531 14.09375 16.390625 14.089844 16.558594 13.953125 C 17.378906 13.296875 18.371094 12.949219 19.421875 12.949219 C 22.148438 12.949219 23.367188 15.246094 23.367188 17.527344 L 23.367188 21.472656 L 21.15625 21.472656 L 21.15625 19.914062 C 21.15625 19.652344 20.945312 19.441406 20.6875 19.441406 L 20.683594 19.441406 C 20.421875 19.441406 20.210938 19.652344 20.210938 19.914062 L 20.210938 21.949219 C 20.210938 22.207031 20.421875 22.421875 20.683594 22.421875 L 23.84375 22.421875 C 24.105469 22.421875 24.316406 22.207031 24.316406 21.949219 L 24.316406 17.527344 C 24.316406 14.273438 22.304688 12 19.421875 12 Z M 19.421875 12 "/>
</g>
</svg>
