<?xml version="1.0" encoding="UTF-8"?>
<svg xmlns="http://www.w3.org/2000/svg" xmlns:xlink="http://www.w3.org/1999/xlink" width="30px" height="30px" viewBox="0 0 30 30" version="1.1">
<g id="surface1">
<path style=" stroke:none;fill-rule:nonzero;fill:rgb(27.843137%,69.019608%,82.745098%);fill-opacity:1;" d="M 29.53125 15 C 29.53125 23.023438 23.023438 29.53125 15 29.53125 C 6.976562 29.53125 0.46875 23.023438 0.46875 15 C 0.46875 6.976562 6.976562 0.46875 15 0.46875 C 23.023438 0.46875 29.53125 6.976562 29.53125 15 Z M 29.53125 15 "/>
<path style=" stroke:none;fill-rule:nonzero;fill:rgb(19.607843%,59.607843%,72.941176%);fill-opacity:1;" d="M 17.003906 29.027344 C 8.980469 29.027344 2.472656 22.523438 2.472656 14.5 C 2.472656 8.054688 6.671875 2.589844 12.480469 0.6875 C 5.65625 1.882812 0.46875 7.835938 0.46875 15 C 0.46875 23.023438 6.976562 29.53125 15 29.53125 C 16.578125 29.53125 18.101562 29.277344 19.523438 28.8125 C 18.707031 28.953125 17.863281 29.027344 17.003906 29.027344 Z M 17.003906 29.027344 "/>
<path style=" stroke:none;fill-rule:nonzero;fill:rgb(69.803922%,69.803922%,69.803922%);fill-opacity:1;" d="M 11.050781 23.519531 L 9.898438 16.59375 L 22.015625 6.785156 Z M 11.050781 23.519531 "/>
<path style=" stroke:none;fill-rule:nonzero;fill:rgb(80%,80%,80%);fill-opacity:1;" d="M 12.496094 17.460938 L 11.050781 23.519531 L 22.015625 6.785156 Z M 12.496094 17.460938 "/>
<path style=" stroke:none;fill-rule:nonzero;fill:rgb(89.803922%,89.803922%,89.803922%);fill-opacity:1;" d="M 12.496094 17.460938 L 22.015625 6.785156 L 21.175781 21.074219 C 21.164062 21.277344 20.949219 21.40625 20.765625 21.320312 Z M 12.496094 17.460938 "/>
<path style=" stroke:none;fill-rule:nonzero;fill:rgb(89.803922%,89.803922%,89.803922%);fill-opacity:1;" d="M 22.015625 6.785156 L 5.863281 14.304688 C 5.636719 14.410156 5.640625 14.730469 5.867188 14.832031 L 9.898438 16.59375 Z M 22.015625 6.785156 "/>
<path style=" stroke:none;fill-rule:nonzero;fill:rgb(0%,0%,0%);fill-opacity:1;" d="M 28.746094 8.992188 C 27.945312 7.15625 26.800781 5.523438 25.34375 4.136719 C 25.15625 3.960938 24.859375 3.964844 24.679688 4.152344 C 24.5 4.34375 24.507812 4.640625 24.695312 4.816406 C 27.511719 7.5 29.058594 11.113281 29.058594 15 C 29.058594 22.753906 22.753906 29.0625 15 29.0625 C 7.246094 29.0625 0.9375 22.753906 0.9375 15 C 0.9375 7.246094 7.246094 0.9375 15 0.9375 C 17.832031 0.9375 20.5625 1.777344 22.894531 3.363281 C 23.109375 3.507812 23.402344 3.453125 23.546875 3.238281 C 23.695312 3.023438 23.636719 2.730469 23.421875 2.585938 C 20.933594 0.894531 18.019531 0 15 0 C 10.992188 0 7.226562 1.558594 4.394531 4.394531 C 1.558594 7.226562 0 10.992188 0 15 C 0 19.007812 1.558594 22.773438 4.394531 25.605469 C 7.226562 28.441406 10.992188 30 15 30 C 19.007812 30 22.773438 28.441406 25.605469 25.605469 C 28.441406 22.773438 30 19.007812 30 15 C 30 12.910156 29.578125 10.890625 28.746094 8.992188 Z M 28.746094 8.992188 "/>
<path style=" stroke:none;fill-rule:nonzero;fill:rgb(0%,0%,0%);fill-opacity:1;" d="M 22.484375 6.773438 C 22.476562 6.441406 22.117188 6.222656 21.816406 6.359375 L 12.78125 10.566406 C 12.546875 10.675781 12.445312 10.953125 12.554688 11.191406 C 12.664062 11.425781 12.945312 11.527344 13.179688 11.417969 L 18.75 8.824219 L 16.042969 11.015625 L 9.824219 16.050781 L 6.425781 14.5625 L 11.191406 12.34375 C 11.425781 12.234375 11.527344 11.953125 11.417969 11.71875 C 11.308594 11.484375 11.027344 11.382812 10.792969 11.492188 L 5.664062 13.878906 C 5.390625 14.007812 5.21875 14.285156 5.226562 14.585938 C 5.234375 14.878906 5.410156 15.144531 5.679688 15.261719 L 9.476562 16.921875 L 10.589844 23.59375 C 10.65625 24.007812 11.214844 24.125 11.445312 23.773438 L 14.601562 18.960938 L 20.566406 21.746094 C 21.042969 21.96875 21.613281 21.625 21.644531 21.101562 L 22.484375 6.8125 C 22.484375 6.800781 22.484375 6.785156 22.484375 6.773438 Z M 14.261719 17.765625 L 13.265625 17.300781 L 18.15625 11.816406 L 17.449219 12.898438 Z M 12.820312 18.128906 L 13.738281 18.558594 L 12.132812 21.011719 Z M 17.8125 10.792969 L 12.144531 17.148438 C 12.09375 17.203125 12.054688 17.277344 12.039062 17.351562 L 11.132812 21.148438 L 10.40625 16.789062 Z M 20.722656 20.78125 L 15.121094 18.167969 L 21.441406 8.515625 Z M 20.722656 20.78125 "/>
</g>
</svg>
