<?xml version="1.0" encoding="UTF-8"?>
<svg xmlns="http://www.w3.org/2000/svg" xmlns:xlink="http://www.w3.org/1999/xlink" width="30px" height="30px" viewBox="0 0 30 30" version="1.1">
<g id="surface1">
<path style=" stroke:none;fill-rule:nonzero;fill:rgb(0%,67.058824%,89.019608%);fill-opacity:1;" d="M 29.765625 22.371094 C 29.765625 26.433594 26.433594 29.765625 22.371094 29.765625 L 7.628906 29.765625 C 3.566406 29.765625 0.234375 26.433594 0.234375 22.371094 L 0.234375 7.628906 C 0.234375 3.566406 3.542969 0.234375 7.628906 0.234375 L 22.371094 0.234375 C 26.433594 0.234375 29.765625 3.566406 29.765625 7.628906 Z M 29.765625 22.371094 "/>
<path style=" stroke:none;fill-rule:nonzero;fill:rgb(100%,100%,100%);fill-opacity:1;" d="M 23.691406 7.914062 C 22.960938 8.339844 22.15625 8.644531 21.285156 8.8125 C 20.597656 8.078125 19.605469 7.628906 18.519531 7.628906 C 16.441406 7.628906 14.738281 9.308594 14.738281 11.363281 C 14.738281 11.644531 14.765625 11.929688 14.835938 12.210938 C 11.691406 12.046875 8.90625 10.582031 7.039062 8.316406 C 6.707031 8.859375 6.519531 9.496094 6.519531 10.179688 C 6.519531 11.480469 7.203125 12.613281 8.21875 13.277344 C 7.605469 13.253906 6.992188 13.085938 6.542969 12.804688 L 6.542969 12.851562 C 6.542969 14.644531 7.820312 16.15625 9.542969 16.488281 C 9.234375 16.582031 8.882812 16.628906 8.527344 16.628906 C 8.292969 16.628906 8.03125 16.605469 7.820312 16.558594 C 8.292969 18.046875 9.683594 19.109375 11.339844 19.132812 C 10.039062 20.125 8.410156 20.714844 6.636719 20.714844 C 6.332031 20.714844 6.023438 20.691406 5.738281 20.667969 C 7.417969 21.730469 9.402344 22.347656 11.527344 22.347656 C 18.472656 22.347656 22.277344 16.675781 22.277344 11.765625 C 22.277344 11.597656 22.277344 11.433594 22.277344 11.292969 C 23.007812 10.773438 23.644531 10.109375 24.164062 9.355469 C 23.480469 9.660156 22.746094 9.851562 21.992188 9.945312 C 22.820312 9.496094 23.410156 8.765625 23.691406 7.914062 "/>
<path style=" stroke:none;fill-rule:nonzero;fill:rgb(0%,0%,0%);fill-opacity:1;" d="M 22.371094 30 L 7.628906 30 C 3.425781 30 0 26.574219 0 22.371094 L 0 7.628906 C 0 3.425781 3.425781 0 7.628906 0 L 22.371094 0 C 26.574219 0 30 3.425781 30 7.628906 L 30 22.371094 C 30 26.574219 26.574219 30 22.371094 30 Z M 7.628906 0.472656 C 3.683594 0.472656 0.472656 3.683594 0.472656 7.628906 L 0.472656 22.371094 C 0.472656 26.316406 3.683594 29.527344 7.628906 29.527344 L 22.371094 29.527344 C 26.316406 29.527344 29.527344 26.316406 29.527344 22.371094 L 29.527344 7.628906 C 29.527344 3.683594 26.316406 0.472656 22.371094 0.472656 Z M 7.628906 0.472656 "/>
<path style=" stroke:none;fill-rule:nonzero;fill:rgb(0%,0%,0%);fill-opacity:1;" d="M 21.851562 28.582031 L 8.148438 28.582031 C 4.488281 28.582031 1.394531 25.488281 1.394531 21.828125 L 1.394531 8.148438 C 1.417969 4.488281 4.488281 1.417969 8.148438 1.417969 L 21.78125 1.417969 C 21.921875 1.417969 22.015625 1.511719 22.015625 1.652344 C 22.015625 1.796875 21.921875 1.890625 21.78125 1.890625 L 8.148438 1.890625 C 4.746094 1.890625 1.890625 4.746094 1.890625 8.148438 L 1.890625 21.851562 C 1.890625 25.253906 4.773438 28.132812 8.171875 28.132812 L 21.875 28.132812 C 25.277344 28.132812 28.132812 25.253906 28.132812 21.851562 L 28.132812 15.234375 C 28.132812 15.09375 28.226562 15 28.371094 15 C 28.511719 15 28.605469 15.09375 28.605469 15.234375 L 28.605469 21.851562 C 28.582031 25.511719 25.511719 28.582031 21.851562 28.582031 Z M 21.851562 28.582031 "/>
<path style=" stroke:none;fill-rule:nonzero;fill:rgb(0%,0%,0%);fill-opacity:1;" d="M 26.410156 3.851562 C 26.339844 3.851562 26.292969 3.828125 26.242188 3.78125 C 25.039062 2.574219 23.433594 1.890625 21.804688 1.890625 C 21.660156 1.890625 21.566406 1.796875 21.566406 1.652344 C 21.566406 1.511719 21.660156 1.417969 21.804688 1.417969 C 23.550781 1.417969 25.300781 2.148438 26.574219 3.449219 C 26.667969 3.542969 26.667969 3.683594 26.574219 3.78125 C 26.527344 3.828125 26.457031 3.851562 26.410156 3.851562 Z M 26.410156 3.851562 "/>
<path style=" stroke:none;fill-rule:nonzero;fill:rgb(0%,0%,0%);fill-opacity:1;" d="M 28.347656 13.820312 C 28.203125 13.820312 28.109375 13.722656 28.109375 13.582031 L 28.109375 10.085938 C 28.109375 9.945312 28.203125 9.851562 28.347656 9.851562 C 28.488281 9.851562 28.582031 9.945312 28.582031 10.085938 L 28.582031 13.582031 C 28.582031 13.722656 28.488281 13.820312 28.347656 13.820312 Z M 28.347656 13.820312 "/>
<path style=" stroke:none;fill-rule:nonzero;fill:rgb(0%,0%,0%);fill-opacity:1;" d="M 22.300781 12.023438 C 22.15625 12.023438 22.0625 11.929688 22.0625 11.789062 C 22.0625 11.621094 22.0625 11.480469 22.0625 11.316406 C 22.0625 11.242188 22.085938 11.148438 22.15625 11.101562 C 22.652344 10.746094 23.101562 10.347656 23.503906 9.875 C 23.03125 10.015625 22.535156 10.132812 22.039062 10.179688 C 21.921875 10.203125 21.828125 10.132812 21.78125 10.015625 C 21.730469 9.898438 21.78125 9.804688 21.875 9.730469 C 22.605469 9.308594 23.171875 8.621094 23.433594 7.796875 C 23.480469 7.675781 23.597656 7.605469 23.738281 7.652344 C 23.859375 7.699219 23.929688 7.820312 23.882812 7.960938 C 23.691406 8.550781 23.363281 9.09375 22.914062 9.542969 C 23.316406 9.449219 23.691406 9.308594 24.070312 9.140625 C 24.164062 9.09375 24.285156 9.117188 24.355469 9.210938 C 24.425781 9.285156 24.425781 9.402344 24.378906 9.496094 C 23.882812 10.226562 23.269531 10.867188 22.535156 11.410156 C 22.535156 11.527344 22.535156 11.644531 22.535156 11.765625 C 22.535156 11.90625 22.417969 12.023438 22.300781 12.023438 Z M 22.300781 12.023438 "/>
<path style=" stroke:none;fill-rule:nonzero;fill:rgb(0%,0%,0%);fill-opacity:1;" d="M 11.527344 22.605469 C 9.425781 22.605469 7.371094 22.015625 5.597656 20.90625 C 5.503906 20.859375 5.457031 20.738281 5.503906 20.621094 C 5.550781 20.503906 5.644531 20.457031 5.765625 20.457031 C 7.535156 20.667969 9.261719 20.242188 10.675781 19.324219 C 9.234375 19.0625 8.03125 18.046875 7.582031 16.628906 C 7.558594 16.558594 7.582031 16.464844 7.628906 16.394531 C 7.675781 16.324219 7.773438 16.300781 7.84375 16.324219 C 8.054688 16.371094 8.292969 16.394531 8.503906 16.394531 C 7.179688 15.730469 6.308594 14.386719 6.308594 12.851562 L 6.308594 12.804688 C 6.308594 12.707031 6.355469 12.636719 6.425781 12.589844 C 6.496094 12.542969 6.589844 12.542969 6.660156 12.589844 C 6.875 12.730469 7.132812 12.828125 7.394531 12.898438 C 6.660156 12.164062 6.234375 11.171875 6.234375 10.15625 C 6.234375 9.449219 6.425781 8.765625 6.78125 8.171875 C 6.828125 8.101562 6.898438 8.054688 6.96875 8.054688 C 7.039062 8.054688 7.109375 8.078125 7.15625 8.148438 C 8.976562 10.347656 11.621094 11.714844 14.480469 11.929688 C 14.457031 11.738281 14.433594 11.527344 14.433594 11.339844 C 14.433594 9.164062 16.226562 7.371094 18.449219 7.371094 C 19.511719 7.371094 20.527344 7.796875 21.285156 8.527344 C 22.0625 8.363281 22.796875 8.078125 23.480469 7.675781 C 23.597656 7.605469 23.738281 7.652344 23.8125 7.773438 C 23.882812 7.890625 23.835938 8.03125 23.714844 8.101562 C 22.9375 8.550781 22.109375 8.859375 21.234375 9.023438 C 21.164062 9.046875 21.070312 9.023438 21.023438 8.953125 C 20.363281 8.242188 19.417969 7.84375 18.425781 7.84375 C 16.464844 7.84375 14.882812 9.402344 14.882812 11.339844 C 14.882812 11.597656 14.90625 11.882812 14.976562 12.140625 C 15 12.210938 14.976562 12.285156 14.929688 12.355469 C 14.882812 12.425781 14.8125 12.449219 14.738281 12.449219 C 11.765625 12.308594 8.953125 10.960938 7.015625 8.738281 C 6.804688 9.1875 6.683594 9.683594 6.683594 10.203125 C 6.683594 11.363281 7.300781 12.449219 8.292969 13.109375 C 8.386719 13.15625 8.410156 13.277344 8.386719 13.371094 C 8.363281 13.464844 8.269531 13.535156 8.148438 13.535156 C 7.652344 13.511719 7.15625 13.417969 6.730469 13.226562 C 6.875 14.738281 8.007812 15.992188 9.519531 16.300781 C 9.636719 16.324219 9.707031 16.417969 9.707031 16.511719 C 9.707031 16.628906 9.636719 16.722656 9.542969 16.746094 C 9.09375 16.867188 8.597656 16.914062 8.101562 16.867188 C 8.667969 18.09375 9.898438 18.898438 11.269531 18.921875 C 11.363281 18.921875 11.457031 18.992188 11.480469 19.085938 C 11.503906 19.179688 11.480469 19.277344 11.410156 19.347656 C 10.039062 20.410156 8.386719 20.976562 6.660156 20.976562 C 8.148438 21.730469 9.78125 22.132812 11.480469 22.132812 C 15.09375 22.132812 18.164062 20.550781 20.125 17.667969 C 20.195312 17.550781 20.339844 17.527344 20.457031 17.597656 C 20.574219 17.667969 20.597656 17.8125 20.527344 17.929688 C 18.542969 20.953125 15.332031 22.605469 11.527344 22.605469 Z M 11.527344 22.605469 "/>
</g>
</svg>
